<svg width="40" height="40" viewBox="0 0 40 40" fill="none" xmlns="http://www.w3.org/2000/svg">
<path d="M1.25 20.002C1.25 28.1895 6.5 35.127 13.75 37.6895V2.31445C6.5 4.87695 1.25 11.8145 1.25 20.002Z" fill="#ED4C5C"/>
<path d="M20 1.25195C17.8125 1.25195 15.6875 1.62695 13.75 2.31445V13.752H37.6875C35.125 6.50195 28.1875 1.25195 20 1.25195Z" fill="#699635"/>
<path d="M37.6875 13.752H13.75V26.252H37.6875C38.375 24.3145 38.75 22.1895 38.75 20.002C38.75 17.8145 38.375 15.6895 37.6875 13.752Z" fill="#F9F9F9"/>
<path d="M13.75 26.252V37.6895C15.6875 38.377 17.8125 38.752 20 38.752C28.1875 38.752 35.125 33.5645 37.6875 26.252H13.75Z" fill="#3E4347"/>
</svg>
