<svg width="24" height="24" viewBox="0 0 24 24" fill="none" xmlns="http://www.w3.org/2000/svg">
<g clip-path="url(#clip0_567_9066)">
<path d="M0.75 12.0012C0.75 16.9137 3.9 21.0762 8.25 22.6137V1.38867C3.9 2.92617 0.75 7.08867 0.75 12.0012Z" fill="#ED4C5C"/>
<path d="M12 0.75116C10.6875 0.75116 9.4125 0.97616 8.25 1.38866V8.25116H22.6125C21.075 3.90116 16.9125 0.75116 12 0.75116Z" fill="#699635"/>
<path d="M22.6125 8.25116H8.25V15.7512H22.6125C23.025 14.5887 23.25 13.3137 23.25 12.0012C23.25 10.6887 23.025 9.41366 22.6125 8.25116Z" fill="#F5F5F5"/>
<path d="M8.25 15.7512V22.6137C9.4125 23.0262 10.6875 23.2512 12 23.2512C16.9125 23.2512 21.075 20.1387 22.6125 15.7512H8.25Z" fill="#3E4347"/>
</g>
<defs>
<clipPath id="clip0_567_9066">
<rect width="24" height="24" fill="white"/>
</clipPath>
</defs>
</svg>
