<svg width="15" height="19" viewBox="0 0 15 19" fill="none" xmlns="http://www.w3.org/2000/svg">
<path d="M14.1499 7.80682H8.45739C7.93976 7.80682 7.44334 7.60119 7.07732 7.23518C6.71131 6.86916 6.50568 6.37274 6.50568 5.85511V0.162642C6.50568 0.119507 6.48855 0.0781381 6.45804 0.0476368C6.42754 0.0171355 6.38617 0 6.34304 0H2.60227C1.91211 0 1.25021 0.274167 0.762188 0.762188C0.274167 1.25021 0 1.91211 0 2.60227V15.6136C0 16.3038 0.274167 16.9657 0.762188 17.4537C1.25021 17.9417 1.91211 18.2159 2.60227 18.2159H11.7102C12.4004 18.2159 13.0623 17.9417 13.5503 17.4537C14.0383 16.9657 14.3125 16.3038 14.3125 15.6136V7.96946C14.3125 7.92632 14.2954 7.88495 14.2649 7.85445C14.2344 7.82395 14.193 7.80682 14.1499 7.80682ZM10.4091 14.3125H3.90341C3.73087 14.3125 3.56539 14.244 3.44339 14.122C3.32138 13.9999 3.25284 13.8345 3.25284 13.6619C3.25284 13.4894 3.32138 13.3239 3.44339 13.2019C3.56539 13.0799 3.73087 13.0114 3.90341 13.0114H10.4091C10.5816 13.0114 10.7471 13.0799 10.8691 13.2019C10.9911 13.3239 11.0597 13.4894 11.0597 13.6619C11.0597 13.8345 10.9911 13.9999 10.8691 14.122C10.7471 14.244 10.5816 14.3125 10.4091 14.3125ZM10.4091 11.0597H3.90341C3.73087 11.0597 3.56539 10.9911 3.44339 10.8691C3.32138 10.7471 3.25284 10.5816 3.25284 10.4091C3.25284 10.2365 3.32138 10.0711 3.44339 9.94907C3.56539 9.82706 3.73087 9.75852 3.90341 9.75852H10.4091C10.5816 9.75852 10.7471 9.82706 10.8691 9.94907C10.9911 10.0711 11.0597 10.2365 11.0597 10.4091C11.0597 10.5816 10.9911 10.7471 10.8691 10.8691C10.7471 10.9911 10.5816 11.0597 10.4091 11.0597Z" fill="#FFCC63"/>
</svg>
