<svg width="24" height="24" viewBox="0 0 24 24" fill="none" xmlns="http://www.w3.org/2000/svg">
<g clip-path="url(#clip0_567_7181)">
<path d="M0.75 12.0012C0.75 16.9137 3.9 21.0762 8.25 22.6137V1.38867C3.9 2.92617 0.75 7.08867 0.75 12.0012Z" fill="#ED4C5C"/>
<path d="M12 0.750977C10.6875 0.750977 9.4125 0.975977 8.25 1.38848V8.25098H22.6125C21.075 3.90098 16.9125 0.750977 12 0.750977Z" fill="#699635"/>
<path d="M22.6125 8.25098H8.25V15.751H22.6125C23.025 14.5885 23.25 13.3135 23.25 12.001C23.25 10.6885 23.025 9.41348 22.6125 8.25098Z" fill="#F5F5F5"/>
<path d="M8.25 15.751V22.6135C9.4125 23.026 10.6875 23.251 12 23.251C16.9125 23.251 21.075 20.1385 22.6125 15.751H8.25Z" fill="#535353"/>
</g>
<defs>
<clipPath id="clip0_567_7181">
<rect width="24" height="24" fill="white"/>
</clipPath>
</defs>
</svg>
