<svg width="16" height="19" viewBox="0 0 16 19" fill="none" xmlns="http://www.w3.org/2000/svg">
<path d="M9.76421 0L13.6358 3.87284V6.336H13.8379C14.2089 6.337 14.5644 6.48473 14.8269 6.74695C15.0893 7.00917 15.2374 7.36458 15.2387 7.73558V13.8455C15.2374 14.2165 15.0893 14.5719 14.8269 14.8341C14.5644 15.0963 14.2089 15.2441 13.8379 15.2451H13.6358V17.4253C13.6351 17.5842 13.5717 17.7364 13.4593 17.8488C13.3469 17.9612 13.1947 18.0246 13.0358 18.0253H2.20295C2.04402 18.0246 1.8918 17.9612 1.77942 17.8488C1.66704 17.7364 1.60361 17.5842 1.60295 17.4253V15.2451H1.40084C1.03006 15.2441 0.67471 15.0965 0.41229 14.8345C0.149869 14.5726 0.00166586 14.2175 0 13.8467V7.73558C0.0013332 7.36458 0.14939 7.00917 0.411846 6.74695C0.674303 6.48473 1.02984 6.337 1.40084 6.336H1.60295V0.601263C1.60295 0.442017 1.66612 0.289274 1.77861 0.176552C1.89109 0.0638294 2.0437 0.000334551 2.20295 0H9.76421ZM9.48632 4.896C9.28283 4.89533 9.08788 4.81421 8.94399 4.67032C8.80011 4.52644 8.71898 4.33148 8.71832 4.128V1.39958H3.00253V6.336H12.2362V4.896H9.48632ZM12.2362 10.5954H3.00253V16.6244H12.2362V10.5954ZM10.9048 11.6994H4.26063V13.1002H10.9048V11.6994ZM10.9048 14.1777H4.26063V15.5773H10.9048V14.1777ZM13.9832 8.51242C13.9832 8.37402 13.9421 8.23872 13.8652 8.12364C13.7883 8.00856 13.679 7.91887 13.5512 7.8659C13.4233 7.81293 13.2826 7.79908 13.1468 7.82608C13.0111 7.85308 12.8864 7.91973 12.7885 8.0176C12.6907 8.11546 12.624 8.24015 12.597 8.3759C12.57 8.51164 12.5839 8.65235 12.6368 8.78022C12.6898 8.90809 12.7795 9.01738 12.8946 9.09427C13.0097 9.17117 13.145 9.21221 13.2834 9.21221C13.469 9.21221 13.647 9.13848 13.7782 9.00725C13.9094 8.87601 13.9832 8.69802 13.9832 8.51242Z" fill="#FFCC63"/>
</svg>
