<svg width="13" height="12" viewBox="0 0 13 12" fill="none" xmlns="http://www.w3.org/2000/svg">
<path fill-rule="evenodd" clip-rule="evenodd" d="M6.50198 10.1671L3.66561 11.6583C3.32613 11.8368 2.90625 11.7063 2.72778 11.3668C2.65671 11.2316 2.63219 11.0768 2.658 10.9262L3.1997 7.76789L0.905027 5.53113C0.630386 5.26342 0.624766 4.82376 0.892475 4.54912C0.999078 4.43975 1.13876 4.36858 1.2899 4.34662L4.46106 3.88582L5.87925 1.01226C6.04899 0.668336 6.46539 0.527128 6.80932 0.696866C6.94627 0.764456 7.05713 0.875309 7.12472 1.01226L8.5429 3.88582L11.7141 4.34662C12.0936 4.40177 12.3566 4.75416 12.3014 5.13371C12.2795 5.28484 12.2083 5.42453 12.0989 5.53113L9.80426 7.76789L10.346 10.9262C10.4108 11.3042 10.1569 11.6632 9.7789 11.7281C9.62838 11.7539 9.47354 11.7294 9.33836 11.6583L6.50198 10.1671Z" fill="#FFCC63"/>
</svg>
